<?xml version="1.0" encoding="UTF-8"?>
<svg viewBox="0 0 300 300" width="600" height="600" xmlns="http://www.w3.org/2000/svg">
  <rect width="300" height="300" fill="#3d2010"/>

  <!-- Outer hexagon -->
  <polygon points="150,15 255,72 255,228 150,285 45,228 45,72" fill="none" stroke="#F2C84B" stroke-width="2"/>
  <!-- Inner hexagon -->
  <polygon points="150,52 220,90 220,210 150,248 80,210 80,90" fill="#E8931A" stroke="#E8931A" stroke-width="1" opacity="0.15"/>
  <polygon points="150,52 220,90 220,210 150,248 80,210 80,90" fill="none" stroke="#E8931A" stroke-width="1.5"/>

  <!-- Center hexagon (shell) -->
  <polygon points="150,100 185,120 185,165 150,185 115,165 115,120" fill="none" stroke="#F2C84B" stroke-width="2.5"/>

  <!-- Turtle head dot -->
  <circle cx="150" cy="75" r="12" fill="#F2C84B"/>
  <!-- Feather lines from head -->
  <line x1="150" y1="63" x2="150" y2="38" stroke="#F2C84B" stroke-width="3"/>
  <line x1="147" y1="65" x2="138" y2="42" stroke="#C4622D" stroke-width="2"/>
  <line x1="153" y1="65" x2="162" y2="42" stroke="#C4622D" stroke-width="2"/>
  <line x1="144" y1="68" x2="130" y2="48" stroke="#2A7A6E" stroke-width="1.5"/>
  <line x1="156" y1="68" x2="170" y2="48" stroke="#2A7A6E" stroke-width="1.5"/>
  <!-- Feather tips -->
  <circle cx="150" cy="35" r="4" fill="#F2C84B"/>
  <circle cx="136" cy="39" r="3" fill="#C4622D"/>
  <circle cx="164" cy="39" r="3" fill="#C4622D"/>
  <circle cx="128" cy="45" r="2.5" fill="#2A7A6E"/>
  <circle cx="172" cy="45" r="2.5" fill="#2A7A6E"/>

  <!-- Four limb dots -->
  <circle cx="72" cy="118" r="9" fill="#C4622D"/>
  <circle cx="228" cy="118" r="9" fill="#C4622D"/>
  <circle cx="72" cy="185" r="9" fill="#C4622D"/>
  <circle cx="228" cy="185" r="9" fill="#C4622D"/>

  <!-- Wampum beads along hexagon vertices -->
  <circle cx="150" cy="15" r="5" fill="#6B4C8A"/>
  <circle cx="255" cy="72" r="5" fill="#E8DFF5"/>
  <circle cx="255" cy="228" r="5" fill="#6B4C8A"/>
  <circle cx="150" cy="285" r="5" fill="#E8DFF5"/>
  <circle cx="45" cy="228" r="5" fill="#6B4C8A"/>
  <circle cx="45" cy="72" r="5" fill="#E8DFF5"/>

  <!-- Wordmark -->
  <text x="150" y="268" text-anchor="middle" font-family="Georgia, serif" font-size="10" font-weight="bold" letter-spacing="5" fill="#F2C84B">KANIEN'KEHÁ:KA</text>
</svg>
