<?xml version="1.0" encoding="UTF-8"?>
<svg viewBox="0 0 1080 1080" width="1080" height="1080" xmlns="http://www.w3.org/2000/svg">
  <defs>
    <radialGradient id="bg" cx="50%" cy="30%" r="70%">
      <stop offset="0%" stop-color="#3d2010"/>
      <stop offset="100%" stop-color="#1a0e05"/>
    </radialGradient>
    <radialGradient id="tg" cx="50%" cy="45%" r="50%">
      <stop offset="0%" stop-color="#F2C84B"/>
      <stop offset="50%" stop-color="#C4622D"/>
      <stop offset="100%" stop-color="#8B3A0F"/>
    </radialGradient>
    <radialGradient id="sg" cx="50%" cy="40%" r="55%">
      <stop offset="0%" stop-color="#E8931A"/>
      <stop offset="100%" stop-color="#5C2206"/>
    </radialGradient>
    <radialGradient id="glow" cx="50%" cy="50%" r="50%">
      <stop offset="0%" stop-color="#F2C84B" stop-opacity="0.3"/>
      <stop offset="100%" stop-color="#F2C84B" stop-opacity="0"/>
    </radialGradient>
    <filter id="blur">
      <feGaussianBlur stdDeviation="8" result="coloredBlur"/>
      <feMerge><feMergeNode in="coloredBlur"/><feMergeNode in="SourceGraphic"/></feMerge>
    </filter>
  </defs>

  <!-- Background -->
  <rect width="1080" height="1080" fill="url(#bg)"/>

  <!-- Background diagonal grid -->
  <g opacity="0.04">
    <line x1="0" y1="0" x2="1080" y2="1080" stroke="#F2C84B" stroke-width="1"/>
    <line x1="270" y1="0" x2="1080" y2="810" stroke="#F2C84B" stroke-width="1"/>
    <line x1="540" y1="0" x2="1080" y2="540" stroke="#F2C84B" stroke-width="1"/>
    <line x1="810" y1="0" x2="1080" y2="270" stroke="#F2C84B" stroke-width="1"/>
    <line x1="0" y1="270" x2="810" y2="1080" stroke="#F2C84B" stroke-width="1"/>
    <line x1="0" y1="540" x2="540" y2="1080" stroke="#F2C84B" stroke-width="1"/>
    <line x1="0" y1="810" x2="270" y2="1080" stroke="#F2C84B" stroke-width="1"/>
  </g>

  <!-- Glow behind turtle -->
  <circle cx="540" cy="480" r="280" fill="url(#glow)"/>

  <!-- Outer rings -->
  <circle cx="540" cy="480" r="360" fill="none" stroke="#F2C84B" stroke-width="2" opacity="0.2"/>
  <circle cx="540" cy="480" r="340" fill="none" stroke="#E8931A" stroke-width="1" opacity="0.15" stroke-dasharray="10 15"/>

  <!-- Wampum beads on outer ring -->
  <g filter="url(#blur)" opacity="0.9">
    <circle cx="540" cy="122" r="10" fill="#6B4C8A"/>
    <circle cx="726" cy="175" r="10" fill="#E8DFF5"/>
    <circle cx="858" cy="328" r="10" fill="#6B4C8A"/>
    <circle cx="895" cy="480" r="10" fill="#E8DFF5"/>
    <circle cx="858" cy="632" r="10" fill="#6B4C8A"/>
    <circle cx="726" cy="785" r="10" fill="#E8DFF5"/>
    <circle cx="540" cy="838" r="10" fill="#6B4C8A"/>
    <circle cx="354" cy="785" r="10" fill="#E8DFF5"/>
    <circle cx="222" cy="632" r="10" fill="#6B4C8A"/>
    <circle cx="185" cy="480" r="10" fill="#E8DFF5"/>
    <circle cx="222" cy="328" r="10" fill="#6B4C8A"/>
    <circle cx="354" cy="175" r="10" fill="#E8DFF5"/>
  </g>

  <!-- TURTLE BODY -->
  <ellipse cx="540" cy="490" rx="200" ry="175" fill="url(#sg)" stroke="#F2C84B" stroke-width="3"/>
  <!-- Shell segments -->
  <polygon points="540,410 590,440 590,510 540,540 490,510 490,440" fill="none" stroke="#F2C84B" stroke-width="2.5" opacity="0.8"/>
  <polygon points="540,380 568,395 568,410 540,410 512,395" fill="none" stroke="#E8931A" stroke-width="2" opacity="0.7"/>
  <polygon points="590,440 625,420 640,445 625,470 590,510 590,440" fill="none" stroke="#E8931A" stroke-width="2" opacity="0.7"/>
  <polygon points="590,510 625,470 640,497 625,522 590,540" fill="none" stroke="#E8931A" stroke-width="2" opacity="0.7"/>
  <polygon points="540,540 568,558 540,578 512,558 490,540" fill="none" stroke="#E8931A" stroke-width="2" opacity="0.7"/>
  <polygon points="490,510 455,522 440,497 455,470 490,440 490,510" fill="none" stroke="#E8931A" stroke-width="2" opacity="0.7"/>
  <polygon points="490,440 455,470 440,445 455,420 490,380 490,440" fill="none" stroke="#E8931A" stroke-width="2" opacity="0.7"/>

  <!-- Head -->
  <ellipse cx="540" cy="325" rx="58" ry="48" fill="url(#tg)" stroke="#F2C84B" stroke-width="3"/>
  <line x1="527" y1="305" x2="553" y2="305" stroke="#1a0e05" stroke-width="3"/>
  <line x1="521" y1="318" x2="559" y2="318" stroke="#1a0e05" stroke-width="2"/>
  <circle cx="521" cy="316" r="8" fill="#1a0e05"/>
  <circle cx="559" cy="316" r="8" fill="#1a0e05"/>
  <circle cx="523" cy="313" r="3" fill="#F2C84B"/>
  <circle cx="561" cy="313" r="3" fill="#F2C84B"/>

  <!-- Legs -->
  <ellipse cx="372" cy="465" rx="50" ry="28" fill="url(#tg)" stroke="#F2C84B" stroke-width="2.5" transform="rotate(-30 372 465)"/>
  <ellipse cx="708" cy="465" rx="50" ry="28" fill="url(#tg)" stroke="#F2C84B" stroke-width="2.5" transform="rotate(30 708 465)"/>
  <ellipse cx="390" cy="568" rx="44" ry="25" fill="url(#tg)" stroke="#F2C84B" stroke-width="2.5" transform="rotate(25 390 568)"/>
  <ellipse cx="690" cy="568" rx="44" ry="25" fill="url(#tg)" stroke="#F2C84B" stroke-width="2.5" transform="rotate(-25 690 568)"/>
  <!-- Tail -->
  <ellipse cx="540" cy="660" rx="22" ry="32" fill="url(#tg)" stroke="#F2C84B" stroke-width="2"/>

  <!-- Warrior feathers -->
  <path d="M540,277 C540,277 530,240 534,195 C537,172 543,172 546,195 C550,240 540,277 540,277Z" fill="#C4622D" stroke="#F2C84B" stroke-width="1.5"/>
  <line x1="540" y1="277" x2="540" y2="195" stroke="#F2C84B" stroke-width="1.5" opacity="0.6"/>
  <path d="M525,281 C525,281 510,248 508,208 C507,188 513,186 517,205 C522,244 525,281 525,281Z" fill="#8B3A0F" stroke="#E8931A" stroke-width="1.5"/>
  <path d="M555,281 C555,281 570,248 572,208 C573,188 567,186 563,205 C558,244 555,281 555,281Z" fill="#8B3A0F" stroke="#E8931A" stroke-width="1.5"/>
  <path d="M510,285 C510,285 490,258 486,228 C484,213 490,211 494,225 C500,254 510,285 510,285Z" fill="#2A7A6E" stroke="#F2C84B" stroke-width="1.5"/>
  <path d="M570,285 C570,285 590,258 594,228 C596,213 590,211 586,225 C580,254 570,285 570,285Z" fill="#2A7A6E" stroke="#F2C84B" stroke-width="1.5"/>

  <!-- Wampum border strips top and bottom -->
  <g>
    <rect x="0" y="0" width="1080" height="55" fill="#2d1a0a"/>
    <rect x="0" y="1025" width="1080" height="55" fill="#2d1a0a"/>
    <!-- Top wampum beads -->
    <circle cx="27" cy="27" r="12" fill="#6B4C8A"/>
    <circle cx="67" cy="27" r="12" fill="#E8DFF5"/>
    <circle cx="107" cy="27" r="12" fill="#6B4C8A"/>
    <circle cx="147" cy="27" r="12" fill="#E8DFF5"/>
    <circle cx="187" cy="27" r="12" fill="#C4622D"/>
    <circle cx="227" cy="27" r="12" fill="#F2C84B"/>
    <circle cx="267" cy="27" r="12" fill="#C4622D"/>
    <circle cx="307" cy="27" r="12" fill="#F2C84B"/>
    <circle cx="347" cy="27" r="12" fill="#6B4C8A"/>
    <circle cx="387" cy="27" r="12" fill="#E8DFF5"/>
    <circle cx="427" cy="27" r="12" fill="#6B4C8A"/>
    <circle cx="467" cy="27" r="12" fill="#E8DFF5"/>
    <circle cx="507" cy="27" r="12" fill="#C4622D"/>
    <circle cx="547" cy="27" r="12" fill="#F2C84B"/>
    <circle cx="587" cy="27" r="12" fill="#C4622D"/>
    <circle cx="627" cy="27" r="12" fill="#F2C84B"/>
    <circle cx="667" cy="27" r="12" fill="#6B4C8A"/>
    <circle cx="707" cy="27" r="12" fill="#E8DFF5"/>
    <circle cx="747" cy="27" r="12" fill="#6B4C8A"/>
    <circle cx="787" cy="27" r="12" fill="#E8DFF5"/>
    <circle cx="827" cy="27" r="12" fill="#C4622D"/>
    <circle cx="867" cy="27" r="12" fill="#F2C84B"/>
    <circle cx="907" cy="27" r="12" fill="#C4622D"/>
    <circle cx="947" cy="27" r="12" fill="#F2C84B"/>
    <circle cx="987" cy="27" r="12" fill="#6B4C8A"/>
    <circle cx="1027" cy="27" r="12" fill="#E8DFF5"/>
    <circle cx="1067" cy="27" r="12" fill="#6B4C8A"/>
    <!-- Bottom beads (same) -->
    <circle cx="27" cy="1053" r="12" fill="#6B4C8A"/>
    <circle cx="67" cy="1053" r="12" fill="#E8DFF5"/>
    <circle cx="107" cy="1053" r="12" fill="#C4622D"/>
    <circle cx="147" cy="1053" r="12" fill="#F2C84B"/>
    <circle cx="187" cy="1053" r="12" fill="#6B4C8A"/>
    <circle cx="227" cy="1053" r="12" fill="#E8DFF5"/>
    <circle cx="267" cy="1053" r="12" fill="#C4622D"/>
    <circle cx="307" cy="1053" r="12" fill="#F2C84B"/>
    <circle cx="347" cy="1053" r="12" fill="#6B4C8A"/>
    <circle cx="387" cy="1053" r="12" fill="#E8DFF5"/>
    <circle cx="427" cy="1053" r="12" fill="#C4622D"/>
    <circle cx="467" cy="1053" r="12" fill="#F2C84B"/>
    <circle cx="507" cy="1053" r="12" fill="#6B4C8A"/>
    <circle cx="547" cy="1053" r="12" fill="#E8DFF5"/>
    <circle cx="587" cy="1053" r="12" fill="#C4622D"/>
    <circle cx="627" cy="1053" r="12" fill="#F2C84B"/>
    <circle cx="667" cy="1053" r="12" fill="#6B4C8A"/>
    <circle cx="707" cy="1053" r="12" fill="#E8DFF5"/>
    <circle cx="747" cy="1053" r="12" fill="#C4622D"/>
    <circle cx="787" cy="1053" r="12" fill="#F2C84B"/>
    <circle cx="827" cy="1053" r="12" fill="#6B4C8A"/>
    <circle cx="867" cy="1053" r="12" fill="#E8DFF5"/>
    <circle cx="907" cy="1053" r="12" fill="#C4622D"/>
    <circle cx="947" cy="1053" r="12" fill="#F2C84B"/>
    <circle cx="987" cy="1053" r="12" fill="#6B4C8A"/>
    <circle cx="1027" cy="1053" r="12" fill="#E8DFF5"/>
    <circle cx="1067" cy="1053" r="12" fill="#C4622D"/>
  </g>

  <!-- Bottom text -->
  <text x="540" y="910" text-anchor="middle" font-family="Georgia, serif" font-size="48" font-weight="bold" letter-spacing="10" fill="#F2C84B">TURTLE CLAN</text>
  <text x="540" y="960" text-anchor="middle" font-family="Georgia, serif" font-size="22" letter-spacing="8" fill="#E8931A">KANIEN'KEHÁ:KA</text>
  <text x="540" y="995" text-anchor="middle" font-family="Georgia, serif" font-style="italic" font-size="16" letter-spacing="5" fill="#F5EDD6" opacity="0.5">Kahnawà:ke · Haudenosaunee Confederacy</text>
</svg>
