<?xml version="1.0" encoding="UTF-8"?>
<svg viewBox="0 0 1080 1080" width="1080" height="1080" xmlns="http://www.w3.org/2000/svg">
  <defs>
    <radialGradient id="bg2" cx="50%" cy="50%" r="70%">
      <stop offset="0%" stop-color="#2d1a0a"/>
      <stop offset="100%" stop-color="#1a0e05"/>
    </radialGradient>
  </defs>

  <rect width="1080" height="1080" fill="url(#bg2)"/>

  <!-- Nested geometric hexagons - Haudenosaunee inspired -->
  <polygon points="540,50 990,300 990,780 540,1030 90,780 90,300" fill="none" stroke="#F2C84B" stroke-width="3" opacity="0.25"/>
  <polygon points="540,120 930,330 930,750 540,960 150,750 150,330" fill="none" stroke="#F2C84B" stroke-width="2" opacity="0.2"/>
  <polygon points="540,190 870,365 870,715 540,890 210,715 210,365" fill="none" stroke="#E8931A" stroke-width="1.5" opacity="0.2"/>
  <polygon points="540,260 810,400 810,680 540,820 270,680 270,400" fill="none" stroke="#C4622D" stroke-width="1" opacity="0.2"/>
  <polygon points="540,330 750,435 750,645 540,750 330,645 330,435" fill="none" stroke="#E8931A" stroke-width="1" opacity="0.2"/>

  <!-- Cross lines -->
  <line x1="540" y1="50" x2="540" y2="1030" stroke="#F2C84B" stroke-width="1" opacity="0.1"/>
  <line x1="90" y1="540" x2="990" y2="540" stroke="#F2C84B" stroke-width="1" opacity="0.1"/>
  <line x1="90" y1="300" x2="990" y2="780" stroke="#F2C84B" stroke-width="1" opacity="0.07"/>
  <line x1="990" y1="300" x2="90" y2="780" stroke="#F2C84B" stroke-width="1" opacity="0.07"/>

  <!-- Wampum bead accents at hexagon points -->
  <circle cx="540" cy="50" r="15" fill="#6B4C8A" opacity="0.8"/>
  <circle cx="990" cy="300" r="15" fill="#E8DFF5" opacity="0.8"/>
  <circle cx="990" cy="780" r="15" fill="#6B4C8A" opacity="0.8"/>
  <circle cx="540" cy="1030" r="15" fill="#E8DFF5" opacity="0.8"/>
  <circle cx="90" cy="780" r="15" fill="#6B4C8A" opacity="0.8"/>
  <circle cx="90" cy="300" r="15" fill="#E8DFF5" opacity="0.8"/>

  <!-- Central text block -->
  <text x="540" y="430" text-anchor="middle" font-family="Georgia, serif" font-size="88" font-weight="bold" letter-spacing="5" fill="#F2C84B">ONK</text>
  <text x="540" y="540" text-anchor="middle" font-family="Georgia, serif" font-size="88" font-weight="bold" letter-spacing="5" fill="#F2C84B">WEH</text>
  <text x="540" y="650" text-anchor="middle" font-family="Georgia, serif" font-size="88" font-weight="bold" letter-spacing="5" fill="#F2C84B">ONWE</text>

  <!-- Divider lines -->
  <line x1="200" y1="690" x2="880" y2="690" stroke="#F2C84B" stroke-width="1.5" opacity="0.4"/>
  <line x1="260" y1="700" x2="820" y2="700" stroke="#E8931A" stroke-width="0.8" opacity="0.3"/>

  <!-- Subtext -->
  <text x="540" y="750" text-anchor="middle" font-family="Georgia, serif" font-size="28" letter-spacing="10" fill="#E8931A">ORIGINAL PEOPLE</text>
  <text x="540" y="800" text-anchor="middle" font-family="Georgia, serif" font-style="italic" font-size="18" letter-spacing="5" fill="#F5EDD6" opacity="0.5">Kanien'kehá:ka · Turtle Clan · Kahnawà:ke</text>

  <!-- Wampum bottom border -->
  <rect x="0" y="1020" width="1080" height="60" fill="#2d1a0a"/>
  <circle cx="40" cy="1050" r="14" fill="#6B4C8A" opacity="0.9"/>
  <circle cx="80" cy="1050" r="14" fill="#E8DFF5" opacity="0.9"/>
  <circle cx="120" cy="1050" r="14" fill="#C4622D" opacity="0.9"/>
  <circle cx="160" cy="1050" r="14" fill="#F2C84B" opacity="0.9"/>
  <circle cx="200" cy="1050" r="14" fill="#6B4C8A" opacity="0.9"/>
  <circle cx="240" cy="1050" r="14" fill="#E8DFF5" opacity="0.9"/>
  <circle cx="280" cy="1050" r="14" fill="#C4622D" opacity="0.9"/>
  <circle cx="320" cy="1050" r="14" fill="#F2C84B" opacity="0.9"/>
  <circle cx="360" cy="1050" r="14" fill="#6B4C8A" opacity="0.9"/>
  <circle cx="400" cy="1050" r="14" fill="#E8DFF5" opacity="0.9"/>
  <circle cx="440" cy="1050" r="14" fill="#C4622D" opacity="0.9"/>
  <circle cx="480" cy="1050" r="14" fill="#F2C84B" opacity="0.9"/>
  <circle cx="520" cy="1050" r="14" fill="#6B4C8A" opacity="0.9"/>
  <circle cx="560" cy="1050" r="14" fill="#E8DFF5" opacity="0.9"/>
  <circle cx="600" cy="1050" r="14" fill="#C4622D" opacity="0.9"/>
  <circle cx="640" cy="1050" r="14" fill="#F2C84B" opacity="0.9"/>
  <circle cx="680" cy="1050" r="14" fill="#6B4C8A" opacity="0.9"/>
  <circle cx="720" cy="1050" r="14" fill="#E8DFF5" opacity="0.9"/>
  <circle cx="760" cy="1050" r="14" fill="#C4622D" opacity="0.9"/>
  <circle cx="800" cy="1050" r="14" fill="#F2C84B" opacity="0.9"/>
  <circle cx="840" cy="1050" r="14" fill="#6B4C8A" opacity="0.9"/>
  <circle cx="880" cy="1050" r="14" fill="#E8DFF5" opacity="0.9"/>
  <circle cx="920" cy="1050" r="14" fill="#C4622D" opacity="0.9"/>
  <circle cx="960" cy="1050" r="14" fill="#F2C84B" opacity="0.9"/>
  <circle cx="1000" cy="1050" r="14" fill="#6B4C8A" opacity="0.9"/>
  <circle cx="1040" cy="1050" r="14" fill="#E8DFF5" opacity="0.9"/>
</svg>
